<?xml version="1.0" encoding="UTF-8"?>
<svg id="Layer_1" data-name="Layer 1" xmlns="http://www.w3.org/2000/svg" viewBox="0 0 160 160">
  <g>
    <g>
      <ellipse cx="79.72" cy="75.07" rx="45.5" ry="44.32" style="fill: #fff; stroke-width: 0px;"/>
      <path d="m79.72,35.25c22.61,0,41,17.86,41,39.82s-18.39,39.82-41,39.82-41-17.86-41-39.82,18.39-39.82,41-39.82m0-9c-27.61,0-50,21.86-50,48.82s22.39,48.82,50,48.82,50-21.86,50-48.82-22.39-48.82-50-48.82h0Z" style="stroke-width: 0px;"/>
    </g>
    <polyline points="58.12 111.01 58.12 151.25 100.73 151.25 100.73 111.01" style="fill: #fff; stroke: #000; stroke-miterlimit: 10; stroke-width: 9px;"/>
  </g>
  <g>
    <g>
      <rect x="9" y="72" width="15" height="5" style="stroke-width: 0px;"/>
      <path d="m22,74v1h-11v-1h11m4-4H7v9h19v-9h0Z" style="stroke-width: 0px;"/>
    </g>
    <g>
      <rect x="136" y="72" width="15" height="5" style="stroke-width: 0px;"/>
      <path d="m149,74v1h-11v-1h11m4-4h-19v9h19v-9h0Z" style="stroke-width: 0px;"/>
    </g>
  </g>
  <g>
    <g>
      <rect x="27.6" y="116.9" width="15" height="5" transform="translate(-74.15 59.79) rotate(-45)" style="stroke-width: 0px;"/>
      <path d="m38.63,115.16l.71.71-7.78,7.78-.71-.71,7.78-7.78m0-5.66l-13.44,13.44,6.36,6.36,13.44-13.44-6.36-6.36h0Z" style="stroke-width: 0px;"/>
    </g>
    <g>
      <rect x="117.4" y="27.1" width="15" height="5" transform="translate(15.65 96.99) rotate(-45)" style="stroke-width: 0px;"/>
      <path d="m128.44,25.36l.71.71-7.78,7.78-.71-.71,7.78-7.78m0-5.66l-13.44,13.44,6.36,6.36,13.44-13.44-6.36-6.36h0Z" style="stroke-width: 0px;"/>
    </g>
  </g>
  <g>
    <g>
      <rect x="77.5" y="130.5" width="5" height="15" style="stroke-width: 0px;"/>
      <path d="m80.5,132.5v11h-1v-11h1m4-4h-9v19h9v-19h0Z" style="stroke-width: 0px;"/>
    </g>
    <g>
      <rect x="77.5" y="3.5" width="5" height="15" style="stroke-width: 0px;"/>
      <path d="m80.5,5.5v11h-1V5.5h1m4-4h-9v19h9V1.5h0Z" style="stroke-width: 0px;"/>
    </g>
  </g>
  <g>
    <g>
      <rect x="122.4" y="111.9" width="5" height="15" transform="translate(-47.85 123.29) rotate(-45)" style="stroke-width: 0px;"/>
      <path d="m121.37,115.16l7.78,7.78-.71.71-7.78-7.78.71-.71m0-5.66l-6.36,6.36,13.44,13.44,6.36-6.36-13.44-13.44h0Z" style="stroke-width: 0px;"/>
    </g>
    <g>
      <rect x="32.6" y="22.1" width="5" height="15" transform="translate(-10.65 33.49) rotate(-45)" style="stroke-width: 0px;"/>
      <path d="m31.56,25.36l7.78,7.78-.71.71-7.78-7.78.71-.71m0-5.66l-6.36,6.36,13.44,13.44,6.36-6.36-13.44-13.44h0Z" style="stroke-width: 0px;"/>
    </g>
  </g>
</svg>